<?xml version="1.0" encoding="UTF-8"?>
<svg width="192px" height="192px" viewBox="0 0 192 192" version="1.1" xmlns="http://www.w3.org/2000/svg" xmlns:xlink="http://www.w3.org/1999/xlink">
    <!-- Generator: Sketch 48.2 (47327) - http://www.bohemiancoding.com/sketch -->
    <title>Group 7</title>
    <desc>Created with Sketch.</desc>
    <defs></defs>
    <g id="Page-1" stroke="none" stroke-width="1" fill="none" fill-rule="evenodd">
        <g id="Group-7">
            <circle id="Oval-2-Copy-2" fill="#00A3FF" cx="96" cy="96" r="96"></circle>
            <g id="Group-6-Copy" transform="translate(46.000000, 40.000000)">
                <g id="Group-3-Copy-2">
                    <g id="Group-5">
                        <g id="Group-4" transform="translate(15.947807, 0.000000)" fill="#FFFFFF">
                            <path d="M53.5846321,17.3105892 L53.5846321,0 C53.6226201,0 53.660413,0 53.6980111,0 C71.2927198,1.97448042 80.0900742,13.1323737 80.0900742,33.4736797 L80.0900742,38.6237234 L80.0878942,38.6236655 L80.0878942,39.2597718 C78.3127366,56.1826737 71.3093522,66.5654384 59.0777408,70.4080659 L82.6831606,112.111166 L61.8239561,112.111166 L39.5505618,72.7613219 L39.5505618,55.8426852 C59.7620947,54.8818301 62.2978055,49.3164753 62.2978055,37.9955776 C62.2978055,29.6502938 62.2978055,28.2167395 62.2978055,33.6949144 L62.2999855,33.6948565 C62.2999855,33.6216212 62.2999855,33.5478956 62.2999855,33.4736797 C62.2999855,22.3335434 60.6013515,18.4432828 53.5846321,17.3105892 Z M33.1664552,58.5265335 L33.1664552,61.4826819 L31.4931714,58.5265335 L33.1664552,58.5265335 Z M0,92.9182749 L17.2236318,92.9182749 L17.2236318,111.881188 L0,111.881188 L0,92.9182749 Z" id="Combined-Shape"></path>
                        </g>
                        <g id="Group-2-Copy" transform="translate(0.000000, 38.557924)" fill="#B8E986">
                            <path d="M16.234446,16.6397511 L16.234446,0.200078792 L33.5227124,0.200078792 L33.5227124,16.6397511 L49.7571584,16.6397511 L49.7571584,33.9280175 L33.5227124,33.9280175 L33.5227124,49.9572372 L16.234446,49.9572372 L16.234446,33.9280175 L0,33.9280175 L0,16.6397511 L16.234446,16.6397511 Z" id="Combined-Shape"></path>
                        </g>
                    </g>
                </g>
                <path d="M34.3571429,15.6862745 L34.3571429,32 L17,32 L17,1.25490196 L17,0 L62,0 L62,15.6862745 L34.3571429,15.6862745 Z" id="Combined-Shape" fill="#FFFFFF"></path>
            </g>
        </g>
    </g>
</svg>