<?xml version="1.0" encoding="UTF-8"?>
<svg width="48px" height="48px" viewBox="0 0 48 48" version="1.1" xmlns="http://www.w3.org/2000/svg" xmlns:xlink="http://www.w3.org/1999/xlink">
    <!-- Generator: Sketch 48.2 (47327) - http://www.bohemiancoding.com/sketch -->
    <title>Shape</title>
    <desc>Created with Sketch.</desc>
    <defs></defs>
    <g id="Page-1" stroke="none" stroke-width="1" fill="none" fill-rule="evenodd">
        <g id="search4" fill="#00A3FF" fill-rule="nonzero">
            <path d="M46.599,40.236 L36.054,29.691 C37.89,26.718 39,23.25 39,19.5 C39,8.73 30.27,-7.10542736e-15 19.5,-7.10542736e-15 C8.73,-7.10542736e-15 -7.10542736e-15,8.73 -7.10542736e-15,19.5 C-7.10542736e-15,30.27 8.73,39 19.5,39 C23.25,39 26.718,37.89 29.688,36.057 L40.236,46.602 C41.994,48.36 44.841,48.36 46.599,46.602 C48.357,44.844 48.357,41.994 46.599,40.236 Z M19.5,33 C12.045,33 6,26.955 6,19.5 C6,12.045 12.045,6 19.5,6 C26.955,6 33,12.045 33,19.5 C33,26.955 26.955,33 19.5,33 Z" id="Shape"></path>
        </g>
    </g>
</svg>