<?xml version="1.0" encoding="UTF-8"?>
<svg width="100px" height="114px" viewBox="0 0 100 114" version="1.1" xmlns="http://www.w3.org/2000/svg" xmlns:xlink="http://www.w3.org/1999/xlink">
    <!-- Generator: Sketch 48.2 (47327) - http://www.bohemiancoding.com/sketch -->
    <title>Group</title>
    <desc>Created with Sketch.</desc>
    <defs></defs>
    <g id="Page-1" stroke="none" stroke-width="1" fill="none" fill-rule="evenodd">
        <g id="Group" fill="#00A3FF" fill-rule="nonzero">
            <path d="M72.4837091,56.1299255 C71.8789928,56.1299255 71.2754471,55.8913005 70.8263702,55.4179279 C69.9584976,54.5028702 69.9965264,53.0575096 70.9115841,52.1895192 C74.3948125,48.8852861 76.3131947,44.4225601 76.3131947,39.6234375 C76.3131947,30.0748389 68.5448269,22.3065889 58.9963462,22.3065889 C50.6096466,22.3065889 43.4431803,28.2856875 41.9558005,36.5235553 C41.731613,37.7644471 40.5430721,38.588774 39.3028846,38.3650553 C38.061524,38.1409856 37.2370793,36.9531466 37.4612668,35.7120216 C39.3413846,25.297899 48.3982981,17.7392812 58.9963486,17.7392812 C71.0632332,17.7392812 80.8805048,27.5564351 80.8805048,39.6234375 C80.8805048,45.6882187 78.4564712,51.32775 74.0548966,55.503024 C73.6133293,55.9220529 73.0478149,56.1299255 72.4837091,56.1299255 Z" id="Shape"></path>
            <path d="M52.2280168,15.8239519 C51.1775072,15.8239519 50.2319327,15.0949351 49.9990601,14.0265841 L47.5907548,2.98814183 C47.3217308,1.7559351 48.1027452,0.539105769 49.3349519,0.270199519 C50.5695048,0.00105769231 51.7843389,0.782543269 52.0528942,2.01463221 L54.4611995,13.0530745 C54.7302236,14.2852813 53.9492091,15.5021106 52.7170024,15.7710168 C52.5529135,15.8068149 52.3890577,15.8239519 52.2280168,15.8239519 Z" id="Shape"></path>
            <path d="M85.793363,37.1646587 C84.7428534,37.1646587 83.7972788,36.4356418 83.5644062,35.3672909 C83.2953822,34.1350841 84.0763966,32.9182548 85.3086034,32.6493486 L97.0515337,30.087399 C98.2863221,29.8182572 99.5009207,30.5997428 99.769476,31.8318317 C100.0385,33.0640385 99.2574856,34.2808678 98.0252788,34.549774 L86.2823486,37.1117236 C86.1182572,37.1475216 85.9544014,37.1646587 85.793363,37.1646587 Z" id="Shape"></path>
            <path d="M73.5029952,19.6772644 C73.0806779,19.6772644 72.6534327,19.5603582 72.2714928,19.3152788 C71.2101851,18.6340337 70.9019567,17.2213029 71.5832043,16.1598798 L78.0275769,6.11924519 C78.7088221,5.05781971 80.1213173,4.74970913 81.1830937,5.43083894 C82.2444014,6.11208413 82.5526298,7.5248149 81.8713822,8.58623798 L75.4270096,18.6268726 C74.9908437,19.306476 74.2546659,19.6772644 73.5029952,19.6772644 Z" id="Shape"></path>
            <path d="M35.8234111,27.897762 C35.4010937,27.897762 34.9738486,27.7808558 34.5921442,27.5357764 L24.5513918,21.0915192 C23.4898486,20.410274 23.1816226,18.9975433 23.8628678,17.9361202 C24.544113,16.8746971 25.9568438,16.5665841 27.0181514,17.2477139 L37.0589038,23.6919712 C38.1204471,24.3732163 38.4286731,25.7859471 37.7474279,26.8473702 C37.3112596,27.5269736 36.5750817,27.897762 35.8234111,27.897762 Z" id="Shape"></path>
            <path d="M91.5292596,63.8525144 C91.1069423,63.8525144 90.6796971,63.7356082 90.2977572,63.4905288 L80.2572404,57.0462716 C79.1959327,56.3650264 78.8877043,54.9522957 79.5689519,53.8908726 C80.2501995,52.8294495 81.6626923,52.5209856 82.7244687,53.2024663 L92.7649856,59.6467236 C93.8262933,60.3279688 94.1345216,61.7406995 93.453274,62.8021226 C93.0171082,63.481726 92.2809303,63.8525144 91.5292596,63.8525144 Z" id="Shape"></path>
            <path d="M15.4111418,89.7982091 C6.97397115,89.7426899 0.122069712,82.8558125 0.122069712,74.4461058 C0.122069712,67.1731803 5.11498077,61.0880913 11.9272091,59.4990649 C11.8269712,58.9151226 11.7767332,58.3200288 11.7767332,57.7156635 C11.7767332,51.939976 16.4755024,47.2410913 22.2513053,47.2410913 C24.1372909,47.2410913 25.9465144,47.7359447 27.5313149,48.6643846 C31.9047188,42.9293101 38.6232813,39.5729639 45.952899,39.5729639 C57.4298558,39.5729639 67.1083894,48.0055577 68.8638534,59.1328534 C76.8064063,59.7113966 83.0916178,66.358476 83.0916178,74.4461034 C83.0916178,82.8279904 76.2723486,89.714399 67.8905769,89.7970313 L15.4111418,89.7982091 Z M22.2513053,51.8084014 C18.9941418,51.8084014 16.3440409,54.4583846 16.3440409,57.7156659 C16.3440409,58.6450433 16.5548462,59.5356875 16.9708245,60.3627139 C17.3196635,61.0564014 17.2921971,61.8796731 16.8978173,62.548476 C16.5036707,63.2172813 15.7966034,63.6399495 15.0207524,63.6705841 C9.22734135,63.8993486 4.6893774,68.6325072 4.6893774,74.4461058 C4.6893774,80.3538389 9.50599038,85.1919327 15.4261659,85.2309014 L67.8680409,85.2298462 C73.7337548,85.1719808 78.5243101,80.3343582 78.5243101,74.4461082 C78.5243101,68.4982332 73.6851611,63.6591995 67.7372861,63.6591995 C67.5147428,63.6591995 67.2738894,63.6687067 66.9788077,63.6891298 C66.3705697,63.7323245 65.7743029,63.5297332 65.3172428,63.1297188 C64.8597139,62.7295865 64.5808293,62.1636034 64.5418606,61.557125 C63.9153101,51.7906779 55.7502163,44.140274 45.952899,44.140274 C39.3829351,44.140274 33.4233197,47.498851 30.0114543,53.1244135 C29.6471226,53.7249063 29.0269111,54.1244519 28.3294663,54.2076707 C27.6315529,54.2905385 26.9348125,54.0483918 26.4397236,53.5506034 C25.3223125,52.4270865 23.8346971,51.8084014 22.2513053,51.8084014 Z" id="Shape"></path>
            <path d="M35.4452284,113.659082 C34.8604639,113.659082 34.2757019,113.435834 33.8296755,112.989457 C32.9383269,112.097171 32.9390313,110.651224 33.8313197,109.759875 L39.2850457,104.311666 C40.1773317,103.420435 41.6231611,103.421022 42.5145096,104.313192 C43.4058582,105.205478 43.4051538,106.651425 42.5128654,107.542774 L37.0591394,112.990983 C36.6133462,113.436421 36.0292885,113.659082 35.4452284,113.659082 Z" id="Shape"></path>
            <path d="M16.4980385,101.245469 C15.913274,101.245469 15.328512,101.022221 14.8824856,100.575726 C13.991137,99.6834399 13.9918413,98.2376106 14.8841298,97.3461442 L18.3234615,93.9103341 C19.2155144,93.0192212 20.6613438,93.0198077 21.5529255,93.9120938 C22.444274,94.8043798 22.4435697,96.2502091 21.5512813,97.1416755 L18.1119495,100.577486 C17.6661563,101.022808 17.0820962,101.245469 16.4980385,101.245469 Z" id="Shape"></path>
            <path d="M46.7700673,101.245469 C46.1853029,101.245469 45.6005409,101.022339 45.1545144,100.575844 C44.2631659,99.6835577 44.2638702,98.2376106 45.1561587,97.346262 L48.5952548,93.9104519 C49.4875409,93.0193389 50.9333702,93.0196899 51.8247187,93.9119784 C52.7160673,94.8042668 52.715363,96.2502115 51.8230745,97.1415601 L48.3839784,100.57737 C47.9381851,101.02269 47.354125,101.245469 46.7700673,101.245469 Z" id="Shape"></path>
            <path d="M56.5704351,106.725606 C55.9854375,106.725606 55.4006731,106.50224 54.9546466,106.055745 C54.0632981,105.163341 54.064238,103.717394 54.9567596,102.826163 L63.8840913,93.9102187 C64.7763774,93.0188702 66.2222067,93.0199279 67.1135553,93.9122139 C68.0049038,94.8046178 68.0039639,96.2505649 67.1114423,97.1417957 L58.1841106,106.05774 C57.7383197,106.50306 57.1544952,106.725606 56.5704351,106.725606 Z" id="Shape"></path>
            <path d="M23.6849279,109.121236 C23.1001635,109.121236 22.5154014,108.897988 22.069375,108.451611 C21.1780264,107.559325 21.1787308,106.113377 22.0710192,105.222029 L33.3939808,93.9104543 C34.2862668,93.0191058 35.7320962,93.0199279 36.6234447,93.9119808 C37.5147933,94.8042668 37.5140889,96.2502139 36.6218005,97.1415625 L25.2988389,108.453137 C24.8530457,108.898575 24.2689856,109.121236 23.6849279,109.121236 Z" id="Shape"></path>
        </g>
    </g>
</svg>