<?xml version="1.0" encoding="UTF-8"?>
<svg width="40px" height="46px" viewBox="0 0 40 46" version="1.1" xmlns="http://www.w3.org/2000/svg" xmlns:xlink="http://www.w3.org/1999/xlink">
    <!-- Generator: Sketch 48.2 (47327) - http://www.bohemiancoding.com/sketch -->
    <title>Group</title>
    <desc>Created with Sketch.</desc>
    <defs></defs>
    <g id="Page-1" stroke="none" stroke-width="1" fill="none" fill-rule="evenodd">
        <g id="Group" fill="#00A3FF" fill-rule="nonzero">
            <path d="M28.9934837,22.4519702 C28.7515971,22.4519702 28.5101788,22.3565202 28.3305481,22.1671712 C27.983399,21.8011481 27.9986106,21.2230038 28.3646337,20.8758077 C29.757925,19.5541144 30.5252779,17.769024 30.5252779,15.849375 C30.5252779,12.0299356 27.4179308,8.92263558 23.5985385,8.92263558 C20.2438587,8.92263558 17.3772721,11.314275 16.7823202,14.6094221 C16.6926452,15.1057788 16.2172288,15.4355096 15.7211538,15.3460221 C15.2246096,15.2563942 14.8948317,14.7812587 14.9845067,14.2848087 C15.7365538,10.1191596 19.3593192,7.0957125 23.5985394,7.0957125 C28.4252933,7.0957125 32.3522019,11.022574 32.3522019,15.849375 C32.3522019,18.2752875 31.3825885,20.5311 29.6219587,22.2012096 C29.4453317,22.3688212 29.219126,22.4519702 28.9934837,22.4519702 Z" id="Shape"></path>
            <path d="M20.8912067,6.32958077 C20.4710029,6.32958077 20.0927731,6.03797404 19.999624,5.61063365 L19.0363019,1.19525673 C18.9286923,0.702374038 19.2410981,0.215642308 19.7339808,0.108079808 C20.2278019,0.000423076923 20.7137356,0.313017308 20.8211577,0.805852885 L21.7844798,5.22122981 C21.8920894,5.7141125 21.5796837,6.20084423 21.086801,6.30840673 C21.0211654,6.32272596 20.9556231,6.32958077 20.8912067,6.32958077 Z" id="Shape"></path>
            <path d="M34.3173452,14.8658635 C33.8971413,14.8658635 33.5189115,14.5742567 33.4257625,14.1469163 C33.3181529,13.6540337 33.6305587,13.1673019 34.1234413,13.0597394 L38.8206135,12.0349596 C39.3145288,11.9273029 39.8003683,12.2398971 39.9077904,12.7327327 C40.0154,13.2256154 39.7029942,13.7123471 39.2101115,13.8199096 L34.5129394,14.8446894 C34.4473029,14.8590087 34.3817606,14.8658635 34.3173452,14.8658635 Z" id="Shape"></path>
            <path d="M29.4011981,7.87090577 C29.2322712,7.87090577 29.0613731,7.82414327 28.9085971,7.72611154 C28.484074,7.45361346 28.3607827,6.88852115 28.6332817,6.46395192 L31.2110308,2.44769808 C31.4835288,2.02312788 32.0485269,1.89988365 32.4732375,2.17233558 C32.8977606,2.44483365 33.0210519,3.00992596 32.7485529,3.43449519 L30.1708038,7.45074904 C29.9963375,7.72259038 29.7018663,7.87090577 29.4011981,7.87090577 Z" id="Shape"></path>
            <path d="M14.3293644,11.1591048 C14.1604375,11.1591048 13.9895394,11.1123423 13.8368577,11.0143106 L9.82055673,8.43660769 C9.39593942,8.16410962 9.27264904,7.59901731 9.54514712,7.17444808 C9.81764519,6.74987885 10.3827375,6.62663365 10.8072606,6.89908558 L14.8235615,9.47678846 C15.2481788,9.74928654 15.3714692,10.3143788 15.0989712,10.7389481 C14.9245038,11.0107894 14.6300327,11.1591048 14.3293644,11.1591048 Z" id="Shape"></path>
            <path d="M36.6117038,25.5410058 C36.4427769,25.5410058 36.2718788,25.4942433 36.1191029,25.3962115 L32.1028962,22.8185087 C31.6783731,22.5460106 31.5550817,21.9809183 31.8275808,21.556349 C32.1000798,21.1317798 32.6650769,21.0083942 33.0897875,21.2809865 L37.1059942,23.8586894 C37.5305173,24.1311875 37.6538087,24.6962798 37.3813096,25.120849 C37.2068433,25.3926904 36.9123721,25.5410058 36.6117038,25.5410058 Z" id="Shape"></path>
            <path d="M6.16445673,35.9192837 C2.78958846,35.897076 0.0488278846,33.142325 0.0488278846,29.7784423 C0.0488278846,26.8692721 2.04599231,24.4352365 4.77088365,23.799626 C4.73078846,23.566049 4.71069327,23.3280115 4.71069327,23.0862654 C4.71069327,20.7759904 6.59020096,18.8964365 8.90052212,18.8964365 C9.65491635,18.8964365 10.3786058,19.0943779 11.012526,19.4657538 C12.7618875,17.171724 15.4493125,15.8291856 18.3811596,15.8291856 C22.9719423,15.8291856 26.8433558,19.2022231 27.5455413,23.6531413 C30.7225625,23.8845587 33.2366471,26.5433904 33.2366471,29.7784413 C33.2366471,33.1311962 30.5089394,35.8857596 27.1562308,35.9188125 L6.16445673,35.9192837 Z M8.90052212,20.7233606 C7.59765673,20.7233606 6.53761635,21.7833538 6.53761635,23.0862663 C6.53761635,23.4580173 6.62193846,23.814275 6.78832981,24.1450856 C6.92786538,24.4225606 6.91687885,24.7518692 6.75912692,25.0193904 C6.60146827,25.2869125 6.31864135,25.4559798 6.00830096,25.4682337 C3.69093654,25.5597394 1.87575096,27.4530029 1.87575096,29.7784423 C1.87575096,32.1415356 3.80239615,34.0767731 6.17046635,34.0923606 L27.1472163,34.0919385 C29.4935019,34.0687923 31.409724,32.1337433 31.409724,29.7784433 C31.409724,27.3992933 29.4740644,25.4636798 27.0949144,25.4636798 C27.0058971,25.4636798 26.9095558,25.4674827 26.7915231,25.4756519 C26.5482279,25.4929298 26.3097212,25.4118933 26.1268971,25.2518875 C25.9438856,25.0918346 25.8323317,24.8654413 25.8167442,24.62285 C25.566124,20.7162712 22.3000865,17.6561096 18.3811596,17.6561096 C15.753174,17.6561096 13.3693279,18.9995404 12.0045817,21.2497654 C11.858849,21.4899625 11.6107644,21.6497808 11.3317865,21.6830683 C11.0526212,21.7162154 10.773925,21.6193567 10.5758894,21.4202413 C10.128925,20.9708346 9.53387885,20.7233606 8.90052212,20.7233606 Z" id="Shape"></path>
            <path d="M14.1780913,45.4636327 C13.9441856,45.4636327 13.7102808,45.3743337 13.5318702,45.1957827 C13.1753308,44.8388683 13.1756125,44.2604894 13.5325279,43.90395 L15.7140183,41.7246663 C16.0709327,41.368174 16.6492644,41.3684087 17.0058038,41.7252769 C17.3623433,42.0821913 17.3620615,42.6605702 17.0051462,43.0171096 L14.8236558,45.1963933 C14.6453385,45.3745683 14.4117154,45.4636327 14.1780913,45.4636327 Z" id="Shape"></path>
            <path d="M6.59921538,40.4981875 C6.36530962,40.4981875 6.13140481,40.4088885 5.95299423,40.2302904 C5.59645481,39.873376 5.59673654,39.2950442 5.95365192,38.9384577 L7.32938462,37.5641337 C7.68620577,37.2076885 8.2645375,37.2079231 8.62117019,37.5648375 C8.97770962,37.9217519 8.97742788,38.5000837 8.6205125,38.8566702 L7.24477981,40.2309942 C7.0664625,40.4091231 6.83283846,40.4981875 6.59921538,40.4981875 Z" id="Shape"></path>
            <path d="M18.7080269,40.4981875 C18.4741212,40.4981875 18.2402163,40.4089356 18.0618058,40.2303375 C17.7052663,39.8734231 17.7055481,39.2950442 18.0624635,38.9385048 L19.4381019,37.5641808 C19.7950163,37.2077356 20.3733481,37.207876 20.7298875,37.5647913 C21.0864269,37.9217067 21.0861452,38.5000846 20.7292298,38.856624 L19.3535913,40.2309481 C19.175274,40.409076 18.94165,40.4981875 18.7080269,40.4981875 Z" id="Shape"></path>
            <path d="M22.628174,42.6902423 C22.394175,42.6902423 22.1602692,42.6008962 21.9818587,42.4222981 C21.6253192,42.0653365 21.6256952,41.4869577 21.9827038,41.1304654 L25.5536365,37.5640875 C25.910551,37.2075481 26.4888827,37.2079712 26.8454221,37.5648856 C27.2019615,37.9218471 27.2015856,38.500226 26.8445769,38.8567183 L23.2736442,42.4230962 C23.0953279,42.601224 22.8617981,42.6902423 22.628174,42.6902423 Z" id="Shape"></path>
            <path d="M9.47397115,43.6484942 C9.24006538,43.6484942 9.00616058,43.5591952 8.82775,43.3806442 C8.47121058,43.0237298 8.47149231,42.445351 8.82840769,42.0888115 L13.3575923,37.5641817 C13.7145067,37.2076423 14.2928385,37.2079712 14.6493779,37.5647923 C15.0059173,37.9217067 15.0056356,38.5000856 14.6487202,38.856625 L10.1195356,43.3812548 C9.94121827,43.5594298 9.70759423,43.6484942 9.47397115,43.6484942 Z" id="Shape"></path>
        </g>
    </g>
</svg>